<svg xmlns="http://www.w3.org/2000/svg" version="1.1" xmlns:xlink="http://www.w3.org/1999/xlink" xmlns:svgjs="http://svgjs.dev/svgjs" width="1000" height="123" viewBox="0 0 1000 123"><g transform="matrix(1,0,0,1,-0.6060606060606233,-0.5434217151702043)"><svg viewBox="0 0 396 49" data-background-color="#ffffff" preserveAspectRatio="xMidYMid meet" height="123" width="1000" xmlns="http://www.w3.org/2000/svg" xmlns:xlink="http://www.w3.org/1999/xlink"><g id="tight-bounds" transform="matrix(1,0,0,1,0.2400000000000091,0.2164854505960534)"><svg viewBox="0 0 395.52 48.56702909880787" height="48.56702909880787" width="395.52"><g><svg viewBox="0 0 465.6564745339724 57.17928688496088" height="48.56702909880787" width="395.52"><g><rect width="3.7311773518884497" height="49.649163720660674" x="56.63781720331842" y="3.7650615821501034" fill="#0074d9" opacity="1" stroke-width="0" stroke="transparent" fill-opacity="1" class="rect-o-0" data-fill-palette-color="primary" rx="1%" id="o-0" data-palette-color="#0074d9"></rect></g><g transform="matrix(1,0,0,1,70.13647453397245,7.902491892205159)"><svg viewBox="0 0 395.52 41.37430310055056" height="41.37430310055056" width="395.52"><g><svg viewBox="0 0 395.52 41.37430310055056" height="41.37430310055056" width="395.52"><g><svg viewBox="0 0 395.52 41.37430310055056" height="41.37430310055056" width="395.52"><g transform="matrix(1,0,0,1,0,0)"><svg width="395.52" viewBox="1.2999999523162842 -35.29999923706055 345.07000732421875 36.099998474121094" height="41.37430310055056" data-palette-color="#0074d9"><path d="M41.8-34.1L37.45-33.7 37.45-0.8 41.8-0.4 41.8 0 29.5 0 29.5-0.4 33.6-0.8 33.6-31.25 33.4-31.25 21.35 0.8 20.85 0.8 7.4-31.3 7.2-31.3 7.2-3.05Q7.2-1.85 7.5-1.38 7.8-0.9 8.7-0.8L8.7-0.8 12.25-0.4 12.25 0 1.3 0 1.3-0.4 4.9-0.8Q5.8-0.9 6.1-1.38 6.4-1.85 6.4-3.05L6.4-3.05 6.4-33.05Q6.05-33.65 5.53-33.88 5-34.1 4-34.1L4-34.1 1.7-34.1 1.7-34.5 10.25-34.5 22.55-5.15 22.75-5.15 33.75-34.5 41.8-34.5 41.8-34.1ZM70.35-31.45Q70.35-32.65 70.05-33.1 69.75-33.55 68.85-33.7L68.85-33.7 65.3-34.1 65.3-34.5 76.25-34.5 76.25-34.1 72.65-33.7Q71.75-33.55 71.45-33.1 71.15-32.65 71.15-31.45L71.15-31.45 71.15-12.25Q71.15-9.1 70.67-7 70.2-4.9 69.2-3.4L69.2-3.4Q67.85-1.45 65.5-0.33 63.15 0.8 60.3 0.8L60.3 0.8Q58 0.8 55.75 0.05 53.5-0.7 52-2L52-2Q50.45-3.35 49.8-5.45 49.15-7.55 49.15-11.25L49.15-11.25 49.15-33.7 45.05-34.1 45.05-34.5 57.35-34.5 57.35-34.1 53-33.7 53-9.6Q53-5.95 53.67-4 54.35-2.05 55.95-1.1L55.95-1.1Q56.8-0.6 58.05-0.3 59.3 0 60.65 0L60.65 0Q63.15 0 65.25-1 67.35-2 68.6-3.85L68.6-3.85Q69.55-5.25 69.95-7.13 70.35-9 70.35-12L70.35-12 70.35-31.45ZM90.6 0.8Q93.7 0.8 96.17-0.5 98.65-1.8 100.05-4.08 101.45-6.35 101.45-9.25L101.45-9.25Q101.45-11.85 100.32-13.63 99.2-15.4 97.37-16.6 95.55-17.8 92.55-19.15L92.55-19.15Q89.2-20.7 87.37-21.8 85.55-22.9 84.52-24.4 83.5-25.9 83.5-28.1L83.5-28.1Q83.5-31.15 85.35-32.93 87.2-34.7 90.3-34.7L90.3-34.7Q95.45-34.7 97.95-29.55L97.95-29.55Q99.2-27 100-23.65L100-23.65 100.5-23.8 100-34.7 99.35-34.7 98.15-32.3Q96.1-33.9 94.32-34.6 92.55-35.3 90.5-35.3L90.5-35.3Q87.55-35.3 85.22-34.08 82.9-32.85 81.57-30.68 80.25-28.5 80.25-25.75L80.25-25.75Q80.25-23.05 81.47-21.18 82.7-19.3 84.55-18.13 86.4-16.95 89.15-15.75L89.15-15.75Q92.5-14.3 94.35-13.2 96.2-12.1 97.27-10.55 98.35-9 98.35-6.75L98.35-6.75Q98.35-3.55 96.32-1.68 94.3 0.2 90.7 0.2L90.7 0.2Q86.5 0.2 83.95-2.65L83.95-2.65Q82.7-4.05 81.92-5.95 81.15-7.85 80.4-11.25L80.4-11.25 79.95-11.15 80.6 0.8 81.25 0.8 82.3-1.95Q83.85-0.65 86.05 0.08 88.25 0.8 90.6 0.8L90.6 0.8ZM106.34-34.1L106.34-34.5 118.39-34.5 118.39-34.1 114.29-33.7 114.29-0.8 118.39-0.4 118.39 0 106.34 0 106.34-0.4 110.44-0.8 110.44-33.7 106.34-34.1ZM146.39-3.4Q144.94-1.8 142.82-0.85 140.69 0.1 138.44 0.1L138.44 0.1Q133.19 0.1 130.34-4.42 127.49-8.95 127.49-17.25L127.49-17.25Q127.49-25.6 130.34-30.15 133.19-34.7 138.49-34.7L138.49-34.7Q141.39-34.7 143.79-33.38 146.19-32.05 147.69-29.6L147.69-29.6Q149.19-27.1 149.89-23.25L149.89-23.25 150.59-23.45 150.09-34.7 149.44-34.7 148.24-32.3Q145.34-33.85 142.97-34.58 140.59-35.3 138.34-35.3L138.34-35.3Q134.04-35.3 130.44-32.9 126.84-30.5 124.77-26.35 122.69-22.2 122.69-17.25L122.69-17.25Q122.69-12.25 124.77-8.13 126.84-4 130.47-1.6 134.09 0.8 138.44 0.8L138.44 0.8Q140.89 0.8 143.52-0.15 146.14-1.1 148.39-2.75L148.39-2.75 150.09 0 150.74 0 150.74-11.5 150.09-11.6Q148.84-6.15 146.39-3.4L146.39-3.4ZM180.54-15L175.84-15 175.84-0.8 180.74-0.4 180.74 0 167.89 0 167.89-0.4 171.99-0.8 171.99-33.7 167.89-34.1 167.89-34.5 180.54-34.5Q186.39-34.5 189.51-32 192.64-29.5 192.64-24.95L192.64-24.95Q192.64-20.1 189.54-17.55 186.44-15 180.54-15L180.54-15ZM180.39-33.9L175.84-33.9 175.84-15.6 180.39-15.6Q184.44-15.6 186.29-17.9 188.14-20.2 188.14-25.2L188.14-25.2Q188.14-29.35 186.46-31.63 184.79-33.9 180.39-33.9L180.39-33.9ZM200.38-33.7L200.38-0.8 196.28-0.4 196.28 0 220.78 0 222.03-10.9 221.43-11 218.03-2.45Q217.58-1.35 217.03-0.98 216.48-0.6 215.28-0.6L215.28-0.6 204.23-0.6 204.23-33.7 208.58-34.1 208.58-34.5 196.28-34.5 196.28-34.1 200.38-33.7ZM252.93-0.9L257.08-0.4 257.08 0 244.83 0 244.83-0.4 248.93-0.9 244.23-13.7 232.13-13.7 227.98-2.65Q227.78-2.1 227.78-1.75L227.78-1.75Q227.78-1.2 228.11-0.98 228.43-0.75 229.28-0.65L229.28-0.65 232.33-0.4 232.33 0 221.68 0 221.68-0.4 224.48-0.65Q225.73-0.75 226.26-1.15 226.78-1.55 227.18-2.65L227.18-2.65 239.43-35.3 240.33-35.3 252.93-0.9ZM232.43-14.5L243.93-14.5 238.33-29.75 238.13-29.75 232.43-14.5ZM273.78-34.5L284.43-34.5 284.43-34.1 281.63-33.85Q280.43-33.75 279.95-33.38 279.48-33 278.93-31.85L278.93-31.85 270.23-13.7 270.23-0.8 274.58-0.4 274.58 0 262.03 0 262.03-0.4 266.38-0.8 266.38-13.45 255.53-33.7 251.43-34.1 251.43-34.5 263.88-34.5 263.88-34.1 259.53-33.7 269.68-14.75 269.93-14.75 278.13-31.85Q278.33-32.3 278.33-32.8L278.33-32.8Q278.33-33.3 277.98-33.55 277.63-33.8 276.83-33.85L276.83-33.85 273.78-34.1 273.78-34.5ZM310.53-10.55L311.08-10.5 309.83 0 285.33 0 285.33-0.4 289.43-0.8 289.43-33.7 285.33-34.1 285.33-34.5 309.88-34.5 310.58-25.1 310.08-25.05 307.28-32.05Q306.83-33.2 306.3-33.55 305.78-33.9 304.58-33.9L304.58-33.9 293.28-33.9 293.28-18.55 300.68-18.55Q301.88-18.55 302.38-18.95 302.88-19.35 303.08-20.5L303.08-20.5 303.93-24.55 304.53-24.55 304.53-11.75 303.93-11.75 303.08-15.8Q302.88-16.95 302.38-17.35 301.88-17.75 300.68-17.75L300.68-17.75 293.28-17.75 293.28-0.6 304.48-0.6Q305.68-0.6 306.23-0.98 306.78-1.35 307.23-2.45L307.23-2.45 310.53-10.55ZM345.67-0.4L346.37-0.4 346.37 0 341.22 0Q340.02 0 339.42-0.35 338.82-0.7 338.17-1.7L338.17-1.7 330.52-14.05Q329.82-15.2 329.35-15.48 328.87-15.75 327.67-15.75L327.67-15.75 323.97-15.75 323.97-0.8 328.32-0.4 328.32 0 316.02 0 316.02-0.4 320.12-0.8 320.12-33.7 316.02-34.1 316.02-34.5 328.67-34.5Q334.57-34.5 337.67-32.13 340.77-29.75 340.77-25.25L340.77-25.25Q340.77-21.75 338.87-19.5 336.97-17.25 333.37-16.4L333.37-16.4 333.42-16.4 342.57-2.1Q343.22-1.1 343.85-0.75 344.47-0.4 345.67-0.4L345.67-0.4ZM328.52-33.9L323.97-33.9 323.97-16.5 328.52-16.5Q332.52-16.5 334.45-18.63 336.37-20.75 336.37-25.15L336.37-25.15Q336.37-29.6 334.42-31.75 332.47-33.9 328.52-33.9L328.52-33.9Z" opacity="1" transform="matrix(1,0,0,1,0,0)" fill="#0074d9" class="undefined-text-0" data-fill-palette-color="primary" id="text-0"></path></svg></g></svg></g></svg></g></svg></g><g><svg viewBox="0 0 46.87033722455285 57.17928688496088" height="57.17928688496088" width="46.87033722455285"><g><svg xmlns="http://www.w3.org/2000/svg" xmlns:xlink="http://www.w3.org/1999/xlink" version="1.1" x="0" y="0" viewBox="4.543999671936035 4.208000183105469 19.332000732421875 23.583999633789062" enable-background="new 0 0 32 32" xml:space="preserve" height="57.17928688496088" width="46.87033722455285" class="icon-icon-0" data-fill-palette-color="accent" id="icon-0"><path d="M10.96 8.042v6.041 9.862c-0.677-0.45-1.636-0.736-2.708-0.736-2.048 0-3.708 1.025-3.708 2.292 0 1.265 1.66 2.291 3.708 2.291s3.708-1.026 3.708-2.291V13.786l10.916-3.24v9.565c-0.678-0.45-1.635-0.736-2.709-0.736-2.047 0-3.707 1.025-3.707 2.292 0 1.265 1.66 2.291 3.707 2.291 2.049 0 3.709-1.026 3.709-2.291V10.249 4.208L10.96 8.042z" fill="#0074d9" data-fill-palette-color="accent"></path></svg></g></svg></g></svg></g><defs></defs></svg><rect width="395.52" height="48.56702909880787" fill="none" stroke="none" visibility="hidden"></rect></g></svg></g></svg>